Coordinates
version=1
nRows=14
nColumns=36
inDegrees=yes

Units are S.I. units (second, meters, Newtons, ...)
If the header above contains a line with 'inDegrees', this indicates whether rotational values are in degrees (yes) or radians (no).

endheader
time	pelvis_tilt	pelvis_list	pelvis_rotation	pelvis_tx	pelvis_ty	pelvis_tz	hip_flexion_r	hip_adduction_r	hip_rotation_r	knee_angle_r	knee_angle_r_beta	ankle_angle_r	subtalar_angle_r	mtp_angle_r	hip_flexion_l	hip_adduction_l	hip_rotation_l	knee_angle_l	knee_angle_l_beta	ankle_angle_l	subtalar_angle_l	mtp_angle_l	lumbar_extension	lumbar_bending	lumbar_rotation	arm_flex_r	arm_add_r	arm_rot_r	elbow_flex_r	pro_sup_r	arm_flex_l	arm_add_l	arm_rot_l	elbow_flex_l	pro_sup_l
      0.00000000	      2.22223932	     -1.24115594	     -0.84324387	     -0.98719385	      1.29641475	     -0.06192543	     -5.51344684	      1.97386949	     -4.29173031	      5.28785234	      0.09229043	      2.45687528	    -19.26320433	     -5.98496017	     -5.86909772	     -0.49204268	     -3.74947325	      3.62961451	      0.06334872	      0.20204888	    -19.21285507	     -5.98496017	    -11.55586591	      2.60726285	     -1.17579000	      7.80536735	     -6.37145243	     18.35236396	     24.61772970	     76.30019032	      7.88881605	     -7.88430541	     23.40454438	     24.77822994	     65.53512435
      0.00416670	      0.52440082	     -0.22623445	     -0.80150160	     -0.98327195	      1.29856137	     -0.06264882	     -3.13086624	      0.92982506	     -4.31822247	      6.03597559	      0.10534765	      6.07360420	    -15.75862450	     -6.07236274	     -3.43558626	      0.99078850	     -5.19666571	      3.74240503	      0.06531729	      1.30664406	    -17.35148142	     -6.07236274	     -9.32607923	      1.64540155	     -1.26772509	      6.90503706	     -5.80633846	     16.26449935	     24.13576697	     76.89563086	      7.97738267	     -7.29550530	     21.27703566	     23.39478916	     65.71334844
      0.00833330	      0.07213953	      0.86001100	     -1.00122612	     -0.98476969	      1.29544594	     -0.06222203	     -2.92109471	     -0.27271929	     -4.80943005	      5.25885013	      0.09178425	      6.36965276	    -14.88086040	     -6.31850544	     -3.11874159	      2.16489716	     -6.97640823	      3.30654429	      0.05771008	      1.09747764	    -17.29485035	     -6.31850544	     -8.64587748	      0.12263131	     -1.03473408	      6.49779635	     -5.22973782	     15.09556389	     24.35109173	     77.52780515	      8.41477276	     -8.12094547	     22.88434870	     23.46049825	     66.86206856
      0.01250000	      0.60785945	      1.31061937	     -1.00846796	     -0.98351673	      1.29909683	     -0.06148710	     -3.97035569	     -0.74290712	     -4.72634888	      4.41385388	      0.07703628	      6.71897091	    -14.39388052	     -6.41958352	     -4.35309865	      2.82163784	     -7.27594485	      2.24732229	      0.03922317	      0.47171349	    -17.47045316	     -6.41958352	     -9.27696999	     -0.55873337	     -0.94287461	      6.24680063	     -5.05321201	     15.15140630	     24.72607500	     76.86016038	      8.59263352	     -8.61389661	     23.43633435	     23.72178538	     66.73485266
      0.01666670	      0.87901821	      1.44643555	     -0.95093572	     -0.98415589	      1.29665952	     -0.06074212	     -4.66809507	     -0.75446780	     -4.30916508	      3.64773367	      0.06366496	      6.82670146	    -14.36702462	     -6.65835649	     -4.91921231	      3.07193875	     -7.00539711	      1.69779243	      0.02963207	      0.26126790	    -17.54924461	     -6.65835649	     -9.64160986	     -0.75640634	     -0.67523012	      6.02427732	     -5.25932857	     16.41831775	     25.27956812	     76.42487201	      9.18246625	     -9.10924247	     26.93134353	     23.61190414	     67.22217980
      0.02083330	      1.29916817	      1.47958195	     -0.96703412	     -0.98361724	      1.29780391	     -0.06118863	     -5.42939485	     -0.72666360	     -4.00306334	      3.12976598	      0.05462472	      6.95122263	    -14.22330253	     -6.86350865	     -5.52119989	      3.15756004	     -7.39408083	      1.40251812	      0.02447856	      0.59835890	    -16.54891208	     -6.86350865	    -10.20460788	     -0.81232180	     -0.43441305	      6.00871671	     -5.37094578	     16.81867819	     25.53124843	     74.55288347	      9.38180734	     -9.10021404	     27.69500240	     23.81515945	     66.36264110
      0.02500000	      1.39694428	      1.51334788	     -0.81364459	     -0.98346519	      1.29909325	     -0.06106617	     -5.92298041	     -0.66567238	     -3.57282215	      2.51095250	      0.04382439	      6.38019437	    -15.12054277	     -7.04513054	     -5.70649147	      3.19814434	     -6.84197397	      1.25413861	      0.02188885	     -0.29436079	    -17.97322382	     -7.04513054	    -10.38659244	     -0.85140511	     -0.37539429	      5.93838987	     -5.71199280	     18.57704990	     26.00951879	     73.57897548	      9.70394512	     -9.19097610	     29.92676523	     23.78826036	     66.00892573
      0.02916670	      1.65389697	      1.51701832	     -0.80812246	     -0.98363007	      1.29801164	     -0.05908498	     -6.38894847	     -0.58647368	     -3.48723517	      2.18599058	      0.03815273	      6.60319348	    -14.72257785	     -7.14787864	     -6.01138151	      3.15415812	     -7.01078146	      1.21419437	      0.02119169	      0.01158407	    -17.06537432	     -7.14787864	    -10.83025152	     -0.92583308	     -0.25787978	      6.02343603	     -5.67582069	     18.86468724	     25.99404756	     71.90684930	      9.87065143	     -9.16719683	     30.25257768	     24.03186099	     65.15141329
      0.03333330	      1.55601848	      1.46856765	     -0.70871694	     -0.98445996	      1.29625086	     -0.05927474	     -6.43405165	     -0.44200844	     -2.86447722	      1.88422706	      0.03288597	      5.96263105	    -15.93450914	     -7.25402591	     -5.89219364	      3.04210357	     -6.54658975	      1.18828306	      0.02073945	     -0.96047004	    -18.57425545	     -7.25402591	    -10.74622225	     -0.90858082	     -0.17638037	      6.12696538	     -5.99294504	     20.83615051	     25.99553150	     72.06431467	     10.22668263	     -9.30805177	     32.60429240	     23.72041861	     65.15741374
      0.03750000	      1.64183114	      1.43776719	     -0.62787857	     -0.98284354	      1.29859568	     -0.05965985	     -6.65252973	     -0.36338831	     -2.77056544	      1.68748039	      0.02945209	      5.76060253	    -16.08602478	     -7.40244481	     -6.04097859	      2.94143470	     -6.53677565	      1.19875514	      0.02092222	     -1.18275870	    -18.65285606	     -7.40244481	    -10.93625601	     -0.88667949	     -0.04311178	      6.01297141	     -6.05185437	     20.40688058	     26.13285302	     75.58590348	     10.54420192	     -9.38750619	     34.44852329	     23.77250241	     65.46240512
      0.04166670	      1.81056963	      1.38565121	     -0.54557501	     -0.98407522	      1.29724150	     -0.06087461	     -6.94887722	     -0.26635290	     -2.81874839	      1.54211459	      0.02691498	      5.93312183	    -15.70238507	     -7.42876015	     -6.25596524	      2.84289719	     -6.86162965	      1.20304787	      0.02099715	     -1.07151997	    -18.25336752	     -7.42876015	    -11.28372671	     -0.79251795	     -0.08921493	      6.10937094	     -6.06492318	     20.35308882	     26.21016597	     73.12816584	     10.48452326	     -9.38222934	     34.04845034	     24.26677800	     64.46920205
      0.04583330	      1.64871781	      1.31486091	     -0.43417612	     -0.98593629	      1.29440633	     -0.06113925	     -6.81547814	     -0.15791090	     -2.32089161	      1.41191265	      0.02464252	      5.36630022	    -16.87548524	     -7.47473542	     -6.02610962	      2.76086162	     -6.27631094	      1.20075822	      0.02095718	     -1.67002122	    -19.28111527	     -7.47473542	    -11.18747218	     -0.68895012	     -0.11577357	      6.19037606	     -6.36814935	     21.42826544	     26.38366710	     74.90071389	     10.73334518	     -9.53529421	     35.84272083	     24.31423877	     65.51624609
      0.05000000	      1.57659675	      1.27353229	     -0.42548982	     -0.98191410	      1.30265973	     -0.05856617	     -6.81077411	     -0.05838512	     -2.22487284	      1.27080091	      0.02217966	      5.33752164	    -16.76657968	     -7.47484732	     -5.97644230	      2.69487320	     -5.95707760	      1.10624311	      0.01930758	     -1.91849285	    -18.94755796	     -7.47484732	    -11.15339870	     -0.69131154	     -0.10063725	      6.13216730	     -6.34433984	     21.44137894	     26.34251676	     74.92528837	     10.69714914	     -9.49012611	     35.86243470	     24.34138083	     65.53372034
      0.05416670	      1.52268959	      1.26007030	     -0.32660020	     -0.98579296	      1.30206283	     -0.06070515	     -6.74743783	     -0.01072453	     -2.21857669	      1.18887181	      0.02074973	      5.31383976	    -16.75175480	     -7.47487362	     -5.91027525	      2.66731497	     -6.05130918	      1.04407643	      0.01822257	     -1.95265403	    -18.94882413	     -7.47487362	    -11.19036542	     -0.70881052	     -0.13756481	      6.20960280	     -6.35720320	     21.43874484	     26.34626608	     74.93215718	     10.79286058	     -9.46561253	     35.87410708	     24.37379000	     65.54349305
